<svg height="512pt" viewBox="-54 0 512 512" width="512pt" xmlns="http://www.w3.org/2000/svg"><path d="m19.054688 29.703125h364.417968v474.894531h-364.417968zm0 0" fill="#2472b2"/><path d="m19.054688 29.703125h20.003906v474.894531h-20.003906zm0 0" fill="#1c5d9f"/><path d="m281.011719 476.371094h102.460937v28.226562h-102.460937zm0 0" fill="#525468"/><path d="m19.054688 476.371094h103.738281v28.226562h-103.738281zm0 0" fill="#525468"/><path d="m19.054688 476.371094h20.003906v28.226562h-20.003906zm0 0" fill="#3e4151"/><path d="m312.769531 214.003906h-223.011719c-5.886718 0-10.660156 4.773438-10.660156 10.660156v59.171876c0 5.886718 4.773438 10.660156 10.660156 10.660156h223.011719c5.886719 0 10.660157-4.773438 10.660157-10.660156v-59.171876c0-5.886718-4.773438-10.660156-10.660157-10.660156zm0 0" fill="#f3a334"/><path d="m99.097656 283.835938v-59.171876c0-5.886718 4.773438-10.660156 10.660156-10.660156h-20c-5.886718 0-10.660156 4.773438-10.660156 10.660156v59.171876c0 5.886718 4.773438 10.660156 10.660156 10.660156h20c-5.886718 0-10.660156-4.773438-10.660156-10.660156zm0 0" fill="#e87e04"/><path d="m280.589844 351.578125h-158.652344c-3.480469 0-6.296875 2.820313-6.296875 6.296875v146.722656h171.246094v-146.722656c0-3.476562-2.816407-6.296875-6.296875-6.296875zm0 0" fill="#b4e1f9"/><path d="m201.261719 351.578125h-79.324219c-3.480469 0-6.296875 2.820313-6.296875 6.296875v146.722656h85.621094zm0 0" fill="#72bdf6"/><path d="m141.9375 351.578125h-20c-3.480469 0-6.296875 2.820313-6.296875 6.296875v146.722656h20v-146.722656c0-3.476562 2.820313-6.296875 6.296875-6.296875zm0 0" fill="#4b98d4"/><path d="m99.480469 63.636719h50.890625v57.125h-50.890625zm0 0" fill="#b4e1f9"/><g fill="#72bdf6"><path d="m150.371094 63.636719h50.890625v57.125h-50.890625zm0 0"/><path d="m99.480469 63.636719h-47.632813c-1.800781 0-3.261718 1.457031-3.261718 3.257812v50.609375c0 1.800782 1.460937 3.257813 3.261718 3.257813h47.632813zm0 0"/><path d="m303.046875 120.761719h-50.890625v-57.125h50.890625zm0 0"/></g><path d="m252.15625 120.761719h-50.890625v-57.125h50.890625zm0 0" fill="#b4e1f9"/><path d="m303.046875 63.636719h47.632813c1.800781 0 3.261718 1.457031 3.261718 3.257812v50.609375c0 1.800782-1.460937 3.257813-3.261718 3.257813h-47.632813zm0 0" fill="#b4e1f9"/><path d="m389.773438 150.75h-377.019532c-3.066406 0-5.550781 2.484375-5.550781 5.550781v17.125c0 3.066407 2.484375 5.550781 5.550781 5.550781h377.019532c3.066406 0 5.550781-2.484374 5.550781-5.550781v-17.125c0-3.066406-2.484375-5.550781-5.550781-5.550781zm0 0" fill="#e4e3e1"/><path d="m389.773438 7.597656h-377.019532c-3.066406 0-5.550781 2.484375-5.550781 5.550782v17.125c0 3.066406 2.484375 5.550781 5.550781 5.550781h377.019532c3.066406 0 5.550781-2.484375 5.550781-5.550781v-17.125c0-3.066407-2.484375-5.550782-5.550781-5.550782zm0 0" fill="#e4e3e1"/><path d="m389.773438 159.371094h-377.019532c-2.640625 0-4.84375-1.84375-5.40625-4.3125-.09375.398437-.144531.8125-.144531 1.242187v17.125c0 3.0625 2.484375 5.550781 5.550781 5.550781h377.019532c3.066406 0 5.554687-2.484374 5.554687-5.550781v-17.125c0-.429687-.054687-.84375-.144531-1.242187-.566406 2.46875-2.769532 4.3125-5.410156 4.3125zm0 0" fill="#d1d0cf"/><path d="m389.773438 16.21875h-377.019532c-2.640625 0-4.84375-1.84375-5.40625-4.3125-.09375.402344-.144531.816406-.144531 1.242188v17.125c0 3.066406 2.484375 5.550781 5.550781 5.550781h377.019532c3.066406 0 5.554687-2.484375 5.554687-5.550781v-17.125c0-.425782-.054687-.839844-.144531-1.242188-.566406 2.46875-2.769532 4.3125-5.410156 4.3125zm0 0" fill="#d1d0cf"/><path d="m90.054688 206.40625c-10.011719 0-18.160157 8.148438-18.160157 18.160156v59.175782c0 10.011718 8.148438 18.15625 18.160157 18.15625h223.015624c10.011719 0 18.160157-8.144532 18.160157-18.15625v-59.175782c0-10.015625-8.148438-18.160156-18.160157-18.160156zm226.171874 18.160156v59.175782c0 1.738281-1.414062 3.15625-3.15625 3.15625h-223.015624c-1.742188 0-3.160157-1.417969-3.160157-3.15625v-59.175782c0-1.742187 1.417969-3.160156 3.160157-3.160156h223.015624c1.742188 0 3.15625 1.417969 3.15625 3.160156zm0 0"/><path d="m144.8125 252.269531c4.101562-1.777343 6.578125-5.878906 6.578125-12.148437 0-10.988282-7.738281-13.773438-15.476563-13.773438h-15.863281c-2.632812 0-5.261719 1.238282-5.261719 3.714844v49.214844c0 1.9375 2.011719 3.636718 5.261719 3.636718h17.179688c8.742187 0 15.550781-4.410156 15.550781-16.636718 0-7.140625-1.027344-11.386719-7.96875-14.007813zm-18.03125-15.398437h8.125c2.941406 0 4.410156 2.710937 4.410156 5.417968 0 2.632813-1.46875 5.339844-4.410156 5.339844h-8.125zm7.738281 35.519531h-7.738281v-15.476563h7.738281c3.867188 0 6.191407 1.855469 6.191407 7.121094 0 4.867188-1.003907 8.355469-6.191407 8.355469zm0 0"/><path d="m185.507812 229.90625c-1.6875-5.375-14.09375-5.378906-15.785156 0l-14.394531 47.203125c-1.265625 5.082031 10.222656 8.152344 11.53125 3.5625l2.632813-9.675781h16.328124l2.628907 9.675781c1.3125 4.59375 12.792969 1.5 11.53125-3.5625zm-13.539062 31.804688 5.648438-20.738282 5.648437 20.738282zm0 0"/><path d="m232.089844 229.984375v26.3125l-12.535156-23.914063c-2.941407-5.648437-4.566407-6.035156-8.898438-6.035156-3.019531 0-6.035156 1.160156-6.035156 3.714844v49.140625c0 4.949219 12.070312 4.949219 12.070312 0v-26.3125l14.703125 26.773437c2.761719 5.09375 12.765625 3.785157 12.765625-.464843v-49.214844c0-4.875-12.070312-4.890625-12.070312 0zm0 0"/><path d="m275.882812 250.800781 12.6875-15.941406c3.472657-4.765625-6.15625-11.695313-9.515624-6.808594l-14.472657 20.507813v-18.570313c0-2.554687-3.019531-3.640625-6.035156-3.640625s-6.035156 1.085938-6.035156 3.640625v49.214844c0 4.949219 12.070312 4.949219 12.070312 0v-14.007813l3.25-4.179687 13.234375 20.121094c3.53125 5.710937 14.039063-.667969 10.832032-5.804688zm0 0"/><path d="m350.980469 56.039062c-12.449219 0-287.070313 0-298.835938 0-5.933593 0-10.757812 4.824219-10.757812 10.757813v50.609375c0 5.933594 4.824219 10.757812 10.757812 10.757812h298.835938c5.933593 0 10.757812-4.824218 10.757812-10.757812v-50.609375c0-5.933594-4.824219-10.757813-10.757812-10.757813zm-258.703125 57.125h-35.890625v-42.125h35.890625zm50.894531 0h-35.894531v-42.125h35.894531zm50.890625 0h-35.890625v-42.125h35.890625zm50.890625 0h-35.890625v-42.125h35.890625zm50.894531 0h-35.894531v-42.125h35.894531zm50.890625 0h-35.890625v-42.125h35.890625zm0 0"/><path d="m225.378906 405.90625c-4.144531 0-7.5 3.355469-7.5 7.5v25.652344c0 4.144531 3.355469 7.503906 7.5 7.503906 4.144532 0 7.5-3.359375 7.5-7.503906v-25.652344c0-4.140625-3.359375-7.5-7.5-7.5zm0 0"/><path d="m177.746094 405.90625c-4.144532 0-7.5 3.355469-7.5 7.5v25.652344c0 4.144531 3.355468 7.503906 7.5 7.503906 4.144531 0 7.5-3.359375 7.5-7.503906v-25.652344c0-4.140625-3.359375-7.5-7.5-7.5zm0 0"/><path d="m11.855469 497h-4.355469c-4.144531 0-7.5 3.355469-7.5 7.5s3.355469 7.5 7.5 7.5h388.125c4.144531 0 7.5-3.355469 7.5-7.5s-3.355469-7.5-7.5-7.5h-4.355469c0-4.105469 0-157.625 0-159.460938 0-4.140624-3.355469-7.5-7.5-7.5s-7.5 3.359376-7.5 7.5v131.234376h-81.582031v-110.992188c0-7.609375-6.191406-13.796875-13.796875-13.796875-6.972656 0-151.703125 0-158.65625 0-7.605469 0-13.796875 6.1875-13.796875 13.796875v110.992188h-81.582031v-282.394532h349.414062v116.160156c0 4.140626 3.355469 7.5 7.5 7.5s7.5-3.359374 7.5-7.5v-116.21875c6.636719-.609374 11.855469-6.199218 11.855469-12.992187v-17.125c0-6.792969-5.21875-12.382813-11.855469-12.988281v-100.046875c6.636719-.605469 11.855469-6.199219 11.855469-12.992188v-17.125c0-7.195312-5.855469-13.050781-13.050781-13.050781h-171.011719c-4.140625 0-7.5 3.359375-7.5 7.5 0 4.144531 3.359375 7.5 7.5 7.5h169.0625v13.226562c-2.480469 0-366.070312 0-373.125 0v-13.226562h169.0625c4.140625 0 7.5-3.355469 7.5-7.5 0-4.140625-3.359375-7.5-7.5-7.5h-171.011719c-7.195312 0-13.050781 5.855469-13.050781 13.050781v17.125c0 6.792969 5.21875 12.386719 11.855469 12.992188v100.046875c-6.636719.605468-11.855469 6.195312-11.855469 12.988281v17.125c0 6.792969 5.21875 12.382813 11.855469 12.992187zm282.832031-13.226562h81.582031v13.226562h-81.582031zm-85.625-124.789063h70.621094v138.015625h-70.621094zm-85.621094 0h70.621094v138.015625h-70.621094c0-5.496094 0-130.511719 0-138.015625zm-15.003906 124.789063v13.226562h-81.582031v-13.226562zm-81.582031-440.542969h349.414062v99.921875h-349.414062zm-11.855469 114.921875h373.125v13.226562c-2.480469 0-366.070312 0-373.125 0zm0 0"/></svg>